<?xml version="1.0" encoding="utf-8" standalone="no"?>
<!DOCTYPE svg PUBLIC "-//W3C//DTD SVG 1.1//EN"
  "http://www.w3.org/Graphics/SVG/1.1/DTD/svg11.dtd">
<!-- Created with matplotlib (http://matplotlib.org/) -->
<svg height="345pt" version="1.1" viewBox="0 0 460 345" width="460pt" xmlns="http://www.w3.org/2000/svg" xmlns:xlink="http://www.w3.org/1999/xlink">
 <defs>
  <style type="text/css">
*{stroke-linecap:butt;stroke-linejoin:round;}
  </style>
 </defs>
 <g id="figure_1">
  <g id="patch_1">
   <path d="M 0 345.6 
L 460.8 345.6 
L 460.8 0 
L 0 0 
z
" style="fill:#ffffff;"/>
  </g>
  <g id="axes_1">
   <g id="patch_2">
    <path d="M 57.6 307.584 
L 414.72 307.584 
L 414.72 41.472 
L 57.6 41.472 
z
" style="fill:#eaeaf2;"/>
   </g>
   <g id="matplotlib.axis_1">
    <g id="xtick_1">
     <g id="line2d_1">
      <path clip-path="url(#p1296bdd925)" d="M 73.832727 307.584 
L 73.832727 41.472 
" style="fill:none;stroke:#ffffff;stroke-linecap:round;"/>
     </g>
     <g id="line2d_2"/>
     <g id="text_1">
      <!-- $0.0$ -->
      <defs>
       <path d="M 42 31.640625 
C 42 37.75 41.90625 48.125 37.703125 56.109375 
C 34 63.109375 28.09375 65.59375 22.90625 65.59375 
C 18.09375 65.59375 12 63.40625 8.203125 56.203125 
C 4.203125 48.71875 3.796875 39.4375 3.796875 31.640625 
C 3.796875 25.953125 3.90625 17.28125 7 9.671875 
C 11.296875 -0.609375 19 -2 22.90625 -2 
C 27.5 -2 34.5 -0.109375 38.59375 9.375 
C 41.59375 16.28125 42 24.359375 42 31.640625 
z
M 22.90625 -0.40625 
C 16.5 -0.40625 12.703125 5.078125 11.296875 12.6875 
C 10.203125 18.5625 10.203125 27.15625 10.203125 32.75 
C 10.203125 40.4375 10.203125 46.828125 11.5 52.921875 
C 13.40625 61.390625 19 64 22.90625 64 
C 27 64 32.296875 61.296875 34.203125 53.125 
C 35.5 47.4375 35.59375 40.734375 35.59375 32.75 
C 35.59375 26.25 35.59375 18.265625 34.40625 12.375 
C 32.296875 1.484375 26.40625 -0.40625 22.90625 -0.40625 
z
" id="CMR17-48"/>
       <path d="M 18.40625 4.796875 
C 18.40625 7.6875 16 9.671875 13.59375 9.671875 
C 10.703125 9.671875 8.703125 7.28125 8.703125 4.890625 
C 8.703125 2 11.09375 0 13.5 0 
C 16.40625 0 18.40625 2.390625 18.40625 4.796875 
z
" id="CMMI12-58"/>
      </defs>
      <g style="fill:#262626;" transform="translate(67.467688 321.502498)scale(0.1 -0.1)">
       <use transform="scale(0.996264)" xlink:href="#CMR17-48"/>
       <use transform="translate(45.690477 0)scale(0.996264)" xlink:href="#CMMI12-58"/>
       <use transform="translate(72.787654 0)scale(0.996264)" xlink:href="#CMR17-48"/>
      </g>
     </g>
    </g>
    <g id="xtick_2">
     <g id="line2d_3">
      <path clip-path="url(#p1296bdd925)" d="M 127.941818 307.584 
L 127.941818 41.472 
" style="fill:none;stroke:#ffffff;stroke-linecap:round;"/>
     </g>
     <g id="line2d_4"/>
     <g id="text_2">
      <!-- $0.5$ -->
      <defs>
       <path d="M 11.40625 57.6875 
C 12.40625 57.28125 16.5 56 20.703125 56 
C 30 56 35.09375 61.109375 38 64.0625 
C 38 64.953125 38 65.5 37.40625 65.5 
C 37.296875 65.5 37.09375 65.5 36.296875 65.046875 
C 32.796875 63.40625 28.703125 62.078125 23.703125 62.078125 
C 20.703125 62.078125 16.203125 62.484375 11.296875 64.671875 
C 10.203125 65.171875 10 65.171875 9.90625 65.171875 
C 9.40625 65.171875 9.296875 65.0625 9.296875 63.078125 
L 9.296875 34.421875 
C 9.296875 32.640625 9.296875 32.140625 10.296875 32.140625 
C 10.796875 32.140625 11 32.34375 11.5 33.03125 
C 14.703125 37.515625 19.09375 39.40625 24.09375 39.40625 
C 27.59375 39.40625 35.09375 37.21875 35.09375 20.140625 
C 35.09375 16.953125 35.09375 11.171875 32.09375 6.578125 
C 29.59375 2.484375 25.703125 0.390625 21.40625 0.390625 
C 14.796875 0.390625 8.09375 5 6.296875 12.71875 
C 6.703125 12.609375 7.5 12.421875 7.90625 12.421875 
C 9.203125 12.421875 11.703125 13.125 11.703125 16.21875 
C 11.703125 18.90625 9.796875 20 7.90625 20 
C 5.59375 20 4.09375 18.59375 4.09375 15.796875 
C 4.09375 7.09375 11 -2 21.59375 -2 
C 31.90625 -2 41.703125 6.875 41.703125 19.75 
C 41.703125 31.71875 33.90625 41 24.203125 41 
C 19.09375 41 14.796875 39.109375 11.40625 35.53125 
z
" id="CMR17-53"/>
      </defs>
      <g style="fill:#262626;" transform="translate(121.576779 321.502498)scale(0.1 -0.1)">
       <use transform="scale(0.996264)" xlink:href="#CMR17-48"/>
       <use transform="translate(45.690477 0)scale(0.996264)" xlink:href="#CMMI12-58"/>
       <use transform="translate(72.787654 0)scale(0.996264)" xlink:href="#CMR17-53"/>
      </g>
     </g>
    </g>
    <g id="xtick_3">
     <g id="line2d_5">
      <path clip-path="url(#p1296bdd925)" d="M 182.050909 307.584 
L 182.050909 41.472 
" style="fill:none;stroke:#ffffff;stroke-linecap:round;"/>
     </g>
     <g id="line2d_6"/>
     <g id="text_3">
      <!-- $1.0$ -->
      <defs>
       <path d="M 26.59375 63.40625 
C 26.59375 65.5 26.5 65.5 25.09375 65.5 
C 21.203125 61.1875 15.296875 59.796875 9.703125 59.796875 
C 9.40625 59.796875 8.90625 59.796875 8.796875 59.5 
C 8.703125 59.296875 8.703125 59.09375 8.703125 57 
C 11.796875 57 17 57.59375 21 59.984375 
L 21 7.203125 
C 21 3.6875 20.796875 2.5 12.203125 2.5 
L 9.203125 2.5 
L 9.203125 0 
C 14 0 19 0 23.796875 0 
C 28.59375 0 33.59375 0 38.40625 0 
L 38.40625 2.5 
L 35.40625 2.5 
C 26.796875 2.5 26.59375 3.59375 26.59375 7.15625 
z
" id="CMR17-49"/>
      </defs>
      <g style="fill:#262626;" transform="translate(175.68587 321.502498)scale(0.1 -0.1)">
       <use transform="scale(0.996264)" xlink:href="#CMR17-49"/>
       <use transform="translate(45.690477 0)scale(0.996264)" xlink:href="#CMMI12-58"/>
       <use transform="translate(72.787654 0)scale(0.996264)" xlink:href="#CMR17-48"/>
      </g>
     </g>
    </g>
    <g id="xtick_4">
     <g id="line2d_7">
      <path clip-path="url(#p1296bdd925)" d="M 236.16 307.584 
L 236.16 41.472 
" style="fill:none;stroke:#ffffff;stroke-linecap:round;"/>
     </g>
     <g id="line2d_8"/>
     <g id="text_4">
      <!-- $1.5$ -->
      <g style="fill:#262626;" transform="translate(229.794961 321.502498)scale(0.1 -0.1)">
       <use transform="scale(0.996264)" xlink:href="#CMR17-49"/>
       <use transform="translate(45.690477 0)scale(0.996264)" xlink:href="#CMMI12-58"/>
       <use transform="translate(72.787654 0)scale(0.996264)" xlink:href="#CMR17-53"/>
      </g>
     </g>
    </g>
    <g id="xtick_5">
     <g id="line2d_9">
      <path clip-path="url(#p1296bdd925)" d="M 290.269091 307.584 
L 290.269091 41.472 
" style="fill:none;stroke:#ffffff;stroke-linecap:round;"/>
     </g>
     <g id="line2d_10"/>
     <g id="text_5">
      <!-- $2.0$ -->
      <defs>
       <path d="M 41.703125 15.453125 
L 39.90625 15.453125 
C 38.90625 8.375 38.09375 7.171875 37.703125 6.5625 
C 37.203125 5.765625 30 5.765625 28.59375 5.765625 
L 9.40625 5.765625 
C 13 9.671875 20 16.75 28.5 24.953125 
C 34.59375 30.734375 41.703125 37.53125 41.703125 47.421875 
C 41.703125 59.21875 32.296875 66 21.796875 66 
C 10.796875 66 4.09375 56.3125 4.09375 47.34375 
C 4.09375 43.4375 7 42.9375 8.203125 42.9375 
C 9.203125 42.9375 12.203125 43.546875 12.203125 47.03125 
C 12.203125 50.109375 9.59375 51 8.203125 51 
C 7.59375 51 7 50.90625 6.59375 50.703125 
C 8.5 59.21875 14.296875 63.40625 20.40625 63.40625 
C 29.09375 63.40625 34.796875 56.515625 34.796875 47.421875 
C 34.796875 38.734375 29.703125 31.25 24 24.75 
L 4.09375 2.28125 
L 4.09375 0 
L 39.296875 0 
z
" id="CMR17-50"/>
      </defs>
      <g style="fill:#262626;" transform="translate(283.904051 321.502498)scale(0.1 -0.1)">
       <use transform="scale(0.996264)" xlink:href="#CMR17-50"/>
       <use transform="translate(45.690477 0)scale(0.996264)" xlink:href="#CMMI12-58"/>
       <use transform="translate(72.787654 0)scale(0.996264)" xlink:href="#CMR17-48"/>
      </g>
     </g>
    </g>
    <g id="xtick_6">
     <g id="line2d_11">
      <path clip-path="url(#p1296bdd925)" d="M 344.378182 307.584 
L 344.378182 41.472 
" style="fill:none;stroke:#ffffff;stroke-linecap:round;"/>
     </g>
     <g id="line2d_12"/>
     <g id="text_6">
      <!-- $2.5$ -->
      <g style="fill:#262626;" transform="translate(338.013142 321.502498)scale(0.1 -0.1)">
       <use transform="scale(0.996264)" xlink:href="#CMR17-50"/>
       <use transform="translate(45.690477 0)scale(0.996264)" xlink:href="#CMMI12-58"/>
       <use transform="translate(72.787654 0)scale(0.996264)" xlink:href="#CMR17-53"/>
      </g>
     </g>
    </g>
    <g id="xtick_7">
     <g id="line2d_13">
      <path clip-path="url(#p1296bdd925)" d="M 398.487273 307.584 
L 398.487273 41.472 
" style="fill:none;stroke:#ffffff;stroke-linecap:round;"/>
     </g>
     <g id="line2d_14"/>
     <g id="text_7">
      <!-- $3.0$ -->
      <defs>
       <path d="M 22.09375 33.703125 
C 31 33.703125 34.90625 25.96875 34.90625 17.03125 
C 34.90625 5 28.5 0.390625 22.703125 0.390625 
C 17.40625 0.390625 8.796875 3.03125 6.09375 10.828125 
C 6.59375 10.625 7.09375 10.625 7.59375 10.625 
C 10 10.625 11.796875 12.21875 11.796875 14.8125 
C 11.796875 17.703125 9.59375 19 7.59375 19 
C 5.90625 19 3.296875 18.203125 3.296875 14.46875 
C 3.296875 5.234375 12.296875 -2 22.90625 -2 
C 34 -2 42.5 6.71875 42.5 16.953125 
C 42.5 26.671875 34.5 33.703125 25 34.796875 
C 32.59375 36.375 39.90625 43.0625 39.90625 52.015625 
C 39.90625 59.6875 32 65.296875 23 65.296875 
C 13.90625 65.296875 5.90625 59.828125 5.90625 52.015625 
C 5.90625 48.59375 8.5 48 9.796875 48 
C 11.90625 48 13.703125 49.296875 13.703125 51.890625 
C 13.703125 54.46875 11.90625 55.765625 9.796875 55.765625 
C 9.40625 55.765625 8.90625 55.765625 8.5 55.578125 
C 11.40625 61.859375 19.296875 63 22.796875 63 
C 26.296875 63 32.90625 61.328125 32.90625 51.875 
C 32.90625 49.109375 32.5 44.1875 29.09375 39.84375 
C 26.09375 36 22.703125 36 19.40625 35.6875 
C 18.90625 35.6875 16.59375 35.453125 16.203125 35.453125 
C 15.5 35.359375 15.09375 35.265625 15.09375 34.5 
C 15.09375 33.796875 15.203125 33.703125 17.203125 33.703125 
z
" id="CMR17-51"/>
      </defs>
      <g style="fill:#262626;" transform="translate(392.122233 321.502498)scale(0.1 -0.1)">
       <use transform="scale(0.996264)" xlink:href="#CMR17-51"/>
       <use transform="translate(45.690477 0)scale(0.996264)" xlink:href="#CMMI12-58"/>
       <use transform="translate(72.787654 0)scale(0.996264)" xlink:href="#CMR17-48"/>
      </g>
     </g>
    </g>
    <g id="text_8">
     <!-- $\displaystyle v$ -->
     <defs>
      <path d="M 45.703125 37.328125 
C 45.703125 43.609375 42.5 44 41.703125 44 
C 39.296875 44 37.09375 41.609375 37.09375 39.609375 
C 37.09375 38.421875 37.796875 37.71875 38.203125 37.328125 
C 39.203125 36.421875 41.796875 33.734375 41.796875 28.546875 
C 41.796875 24.34375 35.796875 1 23.796875 1 
C 17.703125 1 16.5 6.09375 16.5 9.78125 
C 16.5 14.765625 18.796875 21.75 21.5 28.9375 
C 23.09375 33.03125 23.5 34.03125 23.5 36.015625 
C 23.5 40.21875 20.5 44 15.59375 44 
C 6.40625 44 2.703125 29.53125 2.703125 28.734375 
C 2.703125 28.34375 3.09375 27.84375 3.796875 27.84375 
C 4.703125 27.84375 4.796875 28.234375 5.203125 29.640625 
C 7.59375 38.21875 11.5 42.015625 15.296875 42.015625 
C 16.203125 42.015625 17.90625 42.015625 17.90625 38.71875 
C 17.90625 36.125 16.796875 33.234375 15.296875 29.4375 
C 10.5 16.671875 10.5 13.578125 10.5 11.171875 
C 10.5 8.984375 10.796875 4.890625 13.90625 2.09375 
C 17.5 -1 22.5 -1 23.40625 -1 
C 40 -1 45.703125 31.625 45.703125 37.328125 
z
" id="CMMI12-118"/>
     </defs>
     <g style="fill:#262626;" transform="translate(233.503983 335.050023)scale(0.11 -0.11)">
      <use transform="scale(0.996264)" xlink:href="#CMMI12-118"/>
     </g>
    </g>
   </g>
   <g id="matplotlib.axis_2">
    <g id="ytick_1">
     <g id="line2d_15">
      <path clip-path="url(#p1296bdd925)" d="M 57.6 295.488 
L 414.72 295.488 
" style="fill:none;stroke:#ffffff;stroke-linecap:round;"/>
     </g>
     <g id="line2d_16"/>
     <g id="text_9">
      <!-- $0.0$ -->
      <g style="fill:#262626;" transform="translate(37.869921 298.947249)scale(0.1 -0.1)">
       <use transform="scale(0.996264)" xlink:href="#CMR17-48"/>
       <use transform="translate(45.690477 0)scale(0.996264)" xlink:href="#CMMI12-58"/>
       <use transform="translate(72.787654 0)scale(0.996264)" xlink:href="#CMR17-48"/>
      </g>
     </g>
    </g>
    <g id="ytick_2">
     <g id="line2d_17">
      <path clip-path="url(#p1296bdd925)" d="M 57.6 262.74641 
L 414.72 262.74641 
" style="fill:none;stroke:#ffffff;stroke-linecap:round;"/>
     </g>
     <g id="line2d_18"/>
     <g id="text_10">
      <!-- $0.2$ -->
      <g style="fill:#262626;" transform="translate(37.869921 266.205659)scale(0.1 -0.1)">
       <use transform="scale(0.996264)" xlink:href="#CMR17-48"/>
       <use transform="translate(45.690477 0)scale(0.996264)" xlink:href="#CMMI12-58"/>
       <use transform="translate(72.787654 0)scale(0.996264)" xlink:href="#CMR17-50"/>
      </g>
     </g>
    </g>
    <g id="ytick_3">
     <g id="line2d_19">
      <path clip-path="url(#p1296bdd925)" d="M 57.6 230.00482 
L 414.72 230.00482 
" style="fill:none;stroke:#ffffff;stroke-linecap:round;"/>
     </g>
     <g id="line2d_20"/>
     <g id="text_11">
      <!-- $0.4$ -->
      <defs>
       <path d="M 33.59375 64.40625 
C 33.59375 66.5 33.5 66.5 31.703125 66.5 
L 2 19.59375 
L 2 17 
L 27.796875 17 
L 27.796875 7.140625 
C 27.796875 3.5 27.59375 2.5 20.59375 2.5 
L 18.703125 2.5 
L 18.703125 0 
C 21.90625 0 27.296875 0 30.703125 0 
C 34.09375 0 39.5 0 42.703125 0 
L 42.703125 2.5 
L 40.796875 2.5 
C 33.796875 2.5 33.59375 3.5 33.59375 7.140625 
L 33.59375 17 
L 43.796875 17 
L 43.796875 19.59375 
L 33.59375 19.59375 
z
M 28.09375 57.859375 
L 28.09375 19.59375 
L 4 19.59375 
z
" id="CMR17-52"/>
      </defs>
      <g style="fill:#262626;" transform="translate(37.869921 233.464069)scale(0.1 -0.1)">
       <use transform="scale(0.996264)" xlink:href="#CMR17-48"/>
       <use transform="translate(45.690477 0)scale(0.996264)" xlink:href="#CMMI12-58"/>
       <use transform="translate(72.787654 0)scale(0.996264)" xlink:href="#CMR17-52"/>
      </g>
     </g>
    </g>
    <g id="ytick_4">
     <g id="line2d_21">
      <path clip-path="url(#p1296bdd925)" d="M 57.6 197.26323 
L 414.72 197.26323 
" style="fill:none;stroke:#ffffff;stroke-linecap:round;"/>
     </g>
     <g id="line2d_22"/>
     <g id="text_12">
      <!-- $0.6$ -->
      <defs>
       <path d="M 10.59375 34 
C 10.59375 57.65625 21.796875 63 28.296875 63 
C 30.40625 63 35.5 62.640625 37.5 59 
C 35.90625 59 32.90625 59 32.90625 55.515625 
C 32.90625 52.828125 35.09375 51.921875 36.5 51.921875 
C 37.40625 51.921875 40.09375 52.3125 40.09375 55.625 
C 40.09375 61.78125 35.09375 65.296875 28.203125 65.296875 
C 16.296875 65.296875 3.796875 52.96875 3.796875 31 
C 3.796875 3.953125 15.09375 -2 23.09375 -2 
C 32.796875 -2 42 6.671875 42 20.046875 
C 42 32.515625 33.90625 41.59375 23.703125 41.59375 
C 17.59375 41.59375 13.09375 37.609375 10.59375 30.625 
z
M 23.09375 0.390625 
C 10.796875 0.390625 10.796875 18.75 10.796875 22.4375 
C 10.796875 29.625 14.203125 40 23.5 40 
C 25.203125 40 30.09375 40 33.40625 33.125 
C 35.203125 29.21875 35.203125 25.140625 35.203125 20.140625 
C 35.203125 14.75 35.203125 10.78125 33.09375 6.78125 
C 30.90625 2.671875 27.703125 0.390625 23.09375 0.390625 
z
" id="CMR17-54"/>
      </defs>
      <g style="fill:#262626;" transform="translate(37.869921 200.722479)scale(0.1 -0.1)">
       <use transform="scale(0.996264)" xlink:href="#CMR17-48"/>
       <use transform="translate(45.690477 0)scale(0.996264)" xlink:href="#CMMI12-58"/>
       <use transform="translate(72.787654 0)scale(0.996264)" xlink:href="#CMR17-54"/>
      </g>
     </g>
    </g>
    <g id="ytick_5">
     <g id="line2d_23">
      <path clip-path="url(#p1296bdd925)" d="M 57.6 164.52164 
L 414.72 164.52164 
" style="fill:none;stroke:#ffffff;stroke-linecap:round;"/>
     </g>
     <g id="line2d_24"/>
     <g id="text_13">
      <!-- $0.8$ -->
      <defs>
       <path d="M 27.203125 35.375 
C 33.5 38.546875 39.90625 43.328125 39.90625 50.984375 
C 39.90625 60.015625 31.09375 65.296875 23 65.296875 
C 13.90625 65.296875 5.90625 58.734375 5.90625 49.6875 
C 5.90625 47.203125 6.5 42.921875 10.40625 39.140625 
C 11.40625 38.15625 15.59375 35.171875 18.296875 33.28125 
C 13.796875 30.984375 3.296875 25.53125 3.296875 14.59375 
C 3.296875 4.359375 13.09375 -2 22.796875 -2 
C 33.5 -2 42.5 5.65625 42.5 15.78125 
C 42.5 24.84375 36.40625 29.015625 32.40625 31.703125 
z
M 14.09375 44.09375 
C 13.296875 44.59375 9.296875 47.671875 9.296875 52.359375 
C 9.296875 58.421875 15.59375 63 22.796875 63 
C 30.703125 63 36.5 57.4375 36.5 50.96875 
C 36.5 41.703125 26.09375 36.421875 25.59375 36.421875 
C 25.5 36.421875 25.40625 36.421875 24.59375 37.03125 
z
M 32.5 23.734375 
C 34 22.640625 38.796875 19.375 38.796875 13.296875 
C 38.796875 5.953125 31.40625 0.390625 23 0.390625 
C 13.90625 0.390625 7 6.84375 7 14.6875 
C 7 22.546875 13.09375 29.09375 20 32.1875 
z
" id="CMR17-56"/>
      </defs>
      <g style="fill:#262626;" transform="translate(37.869921 167.980889)scale(0.1 -0.1)">
       <use transform="scale(0.996264)" xlink:href="#CMR17-48"/>
       <use transform="translate(45.690477 0)scale(0.996264)" xlink:href="#CMMI12-58"/>
       <use transform="translate(72.787654 0)scale(0.996264)" xlink:href="#CMR17-56"/>
      </g>
     </g>
    </g>
    <g id="ytick_6">
     <g id="line2d_25">
      <path clip-path="url(#p1296bdd925)" d="M 57.6 131.78005 
L 414.72 131.78005 
" style="fill:none;stroke:#ffffff;stroke-linecap:round;"/>
     </g>
     <g id="line2d_26"/>
     <g id="text_14">
      <!-- $1.0$ -->
      <g style="fill:#262626;" transform="translate(37.869921 135.239299)scale(0.1 -0.1)">
       <use transform="scale(0.996264)" xlink:href="#CMR17-49"/>
       <use transform="translate(45.690477 0)scale(0.996264)" xlink:href="#CMMI12-58"/>
       <use transform="translate(72.787654 0)scale(0.996264)" xlink:href="#CMR17-48"/>
      </g>
     </g>
    </g>
    <g id="ytick_7">
     <g id="line2d_27">
      <path clip-path="url(#p1296bdd925)" d="M 57.6 99.03846 
L 414.72 99.03846 
" style="fill:none;stroke:#ffffff;stroke-linecap:round;"/>
     </g>
     <g id="line2d_28"/>
     <g id="text_15">
      <!-- $1.2$ -->
      <g style="fill:#262626;" transform="translate(37.869921 102.497709)scale(0.1 -0.1)">
       <use transform="scale(0.996264)" xlink:href="#CMR17-49"/>
       <use transform="translate(45.690477 0)scale(0.996264)" xlink:href="#CMMI12-58"/>
       <use transform="translate(72.787654 0)scale(0.996264)" xlink:href="#CMR17-50"/>
      </g>
     </g>
    </g>
    <g id="ytick_8">
     <g id="line2d_29">
      <path clip-path="url(#p1296bdd925)" d="M 57.6 66.29687 
L 414.72 66.29687 
" style="fill:none;stroke:#ffffff;stroke-linecap:round;"/>
     </g>
     <g id="line2d_30"/>
     <g id="text_16">
      <!-- $1.4$ -->
      <g style="fill:#262626;" transform="translate(37.869921 69.756119)scale(0.1 -0.1)">
       <use transform="scale(0.996264)" xlink:href="#CMR17-49"/>
       <use transform="translate(45.690477 0)scale(0.996264)" xlink:href="#CMMI12-58"/>
       <use transform="translate(72.787654 0)scale(0.996264)" xlink:href="#CMR17-52"/>
      </g>
     </g>
    </g>
    <g id="text_17">
     <!-- $\displaystyle f_V(|v|)$ -->
     <defs>
      <path d="M 44.59375 40.09375 
C 46.59375 40.09375 47.40625 40.09375 47.40625 42 
C 47.40625 43 46.59375 43 44.796875 43 
L 36.703125 43 
C 38.59375 53.578125 40 60.890625 40.796875 64.171875 
C 41.40625 66.640625 43.5 69 46.09375 69 
C 48.203125 69 50.296875 68.09375 51.296875 67.15625 
C 47.40625 66.75 46.203125 63.78125 46.203125 62.015625 
C 46.203125 59.953125 47.703125 58.734375 49.59375 58.734375 
C 51.59375 58.734375 54.59375 60.46875 54.59375 64.359375 
C 54.59375 68.640625 50.40625 71 46 71 
C 41.703125 71 37.5 67.71875 35.5 63.71875 
C 33.703125 60.125 32.703125 56.421875 30.40625 43 
L 23.703125 43 
C 21.796875 43 20.796875 43 20.796875 41.203125 
C 20.796875 40.09375 21.40625 40.09375 23.40625 40.09375 
L 29.796875 40.09375 
C 28 30.875 23.90625 8.46875 21.59375 -2.140625 
C 19.90625 -10.765625 18.40625 -18 13.40625 -18 
C 13.09375 -18 10.203125 -18 8.40625 -16.109375 
C 13.5 -15.703125 13.5 -11.34375 13.5 -11.25 
C 13.5 -9.265625 12 -8.078125 10.09375 -8.078125 
C 8.09375 -8.078125 5.09375 -9.765625 5.09375 -13.546875 
C 5.09375 -17.8125 9.5 -20 13.40625 -20 
C 23.59375 -20 27.796875 -1.84375 28.90625 3.109375 
C 30.703125 10.75 35.59375 37.125 36.09375 40.09375 
z
" id="CMMI12-102"/>
      <path d="M 61.90625 56.875 
C 65.296875 62.25 68.40625 64.625 73.5 65.03125 
C 74.5 65.125 75.296875 65.125 75.296875 66.90625 
C 75.296875 67.3125 75.09375 67.90625 74.203125 67.90625 
C 72.40625 67.90625 68.09375 67.90625 66.296875 67.90625 
C 63.40625 67.90625 60.40625 67.90625 57.59375 67.90625 
C 56.796875 67.90625 55.796875 67.90625 55.796875 66.03125 
C 55.796875 65.125 56.703125 65.03125 57.09375 65.03125 
C 60.796875 64.734375 61.203125 62.953125 61.203125 61.75 
C 61.203125 60.265625 59.796875 57.96875 59.703125 57.875 
L 28.296875 8.4375 
L 21.296875 62.015625 
C 21.296875 65 26.5 65 27.59375 65 
C 29.09375 65 30 65 30 66.90625 
C 30 67.90625 28.90625 67.90625 28.59375 67.90625 
C 26.90625 67.90625 24.90625 67.90625 23.203125 67.90625 
L 17.59375 67.90625 
C 10.296875 67.90625 7.296875 67.90625 7.203125 67.90625 
C 6.59375 67.90625 5.40625 67.90625 5.40625 66.09375 
C 5.40625 65 6.09375 65 7.703125 65 
C 12.796875 65 13.09375 64.09375 13.40625 61.625 
L 21.40625 0.375 
C 21.703125 -1.703125 21.703125 -2 23.09375 -2 
C 24.296875 -2 24.796875 -1.703125 25.796875 -0.125 
z
" id="CMMI12-86"/>
      <path d="M 30.59375 -24.390625 
C 30.59375 -24.296875 30.59375 -24.09375 30.296875 -23.796875 
C 25.703125 -19.125 13.40625 -6.359375 13.40625 24.703125 
C 13.40625 55.765625 25.5 68.421875 30.40625 73.390625 
C 30.40625 73.5 30.59375 73.703125 30.59375 74 
C 30.59375 74.296875 30.296875 74.5 29.90625 74.5 
C 28.796875 74.5 20.296875 67.125 15.40625 56.15625 
C 10.40625 45.109375 9 34.359375 9 24.8125 
C 9 17.625 9.703125 5.484375 15.703125 -7.359375 
C 20.5 -17.734375 28.703125 -25 29.90625 -25 
C 30.40625 -25 30.59375 -24.796875 30.59375 -24.390625 
z
" id="CMR17-40"/>
      <path d="M 15.90625 71.40625 
C 15.90625 73.203125 15.90625 75 13.90625 75 
C 11.90625 75 11.90625 73.203125 11.90625 71.40625 
L 11.90625 -21.40625 
C 11.90625 -23.203125 11.90625 -25 13.90625 -25 
C 15.90625 -25 15.90625 -23.203125 15.90625 -21.40625 
z
" id="CMSY10-106"/>
      <path d="M 26.296875 24.703125 
C 26.296875 31.875 25.59375 44.015625 19.59375 56.859375 
C 14.796875 67.234375 6.59375 74.5 5.40625 74.5 
C 5.09375 74.5 4.703125 74.390625 4.703125 73.890625 
C 4.703125 73.703125 4.796875 73.59375 4.90625 73.390625 
C 9.703125 68.40625 21.90625 55.75 21.90625 24.75 
C 21.90625 -6.359375 9.796875 -19.015625 4.90625 -24.015625 
C 4.796875 -24.203125 4.703125 -24.3125 4.703125 -24.5 
C 4.703125 -25 5.09375 -25 5.40625 -25 
C 6.5 -25 15 -17.625 19.90625 -6.65625 
C 24.90625 4.390625 26.296875 15.140625 26.296875 24.703125 
z
" id="CMR17-41"/>
     </defs>
     <g style="fill:#262626;" transform="translate(31.739026 191.149492)rotate(-90)scale(0.11 -0.11)">
      <use transform="translate(0 14.943915)scale(0.996264)" xlink:href="#CMMI12-102"/>
      <use transform="translate(48.083238 0)scale(0.697382)" xlink:href="#CMMI12-86"/>
      <use transform="translate(103.56424 14.943915)scale(0.996264)" xlink:href="#CMR17-40"/>
      <use transform="translate(138.845008 14.943915)scale(0.996264)" xlink:href="#CMSY10-106"/>
      <use transform="translate(166.519093 14.943915)scale(0.996264)" xlink:href="#CMMI12-118"/>
      <use transform="translate(217.254266 14.943915)scale(0.996264)" xlink:href="#CMSY10-106"/>
      <use transform="translate(244.928351 14.943915)scale(0.996264)" xlink:href="#CMR17-41"/>
     </g>
    </g>
   </g>
   <g id="line2d_31">
    <path clip-path="url(#p1296bdd925)" d="M 73.832727 295.488 
L 97.640727 181.079634 
L 104.133818 150.980955 
L 108.462545 131.764136 
L 112.791273 113.608662 
L 116.037818 100.934013 
L 119.284364 89.286764 
L 121.448727 82.19974 
L 123.613091 75.733911 
L 125.777455 69.958818 
L 127.941818 64.944429 
L 130.106182 60.759796 
L 131.188364 58.999599 
L 132.270545 57.471548 
L 133.352727 56.183319 
L 134.434909 55.142219 
L 135.517091 54.355128 
L 136.599273 53.82844 
L 137.681455 53.568 
L 138.763636 53.579046 
L 139.845818 53.866147 
L 140.928 54.433142 
L 142.010182 55.283084 
L 143.092364 56.418183 
L 144.174545 57.83975 
L 145.256727 59.548152 
L 146.338909 61.542761 
L 147.421091 63.821913 
L 149.585455 69.221816 
L 151.749818 75.712654 
L 153.914182 83.241053 
L 156.078545 91.735364 
L 158.242909 101.10614 
L 161.489455 116.569284 
L 164.736 133.343008 
L 170.146909 162.905059 
L 175.557818 192.438059 
L 178.804364 209.212797 
L 182.050909 224.777997 
L 184.215273 234.326044 
L 186.379636 243.130738 
L 188.544 251.147342 
L 190.708364 258.352619 
L 192.872727 264.743927 
L 195.037091 270.337519 
L 197.201455 275.166184 
L 199.365818 279.276379 
L 201.530182 282.725056 
L 203.694545 285.576372 
L 205.858909 287.898477 
L 208.023273 289.760547 
L 210.187636 291.230206 
L 212.352 292.371414 
L 214.516364 293.242897 
L 216.680727 293.897095 
L 219.927273 294.568864 
L 223.173818 294.977726 
L 227.502545 295.269833 
L 233.995636 295.435402 
L 248.064 295.486773 
L 397.405091 295.488 
L 397.405091 295.488 
" style="fill:none;stroke:#4c72b0;stroke-linecap:round;stroke-width:1.75;"/>
   </g>
   <g id="line2d_32">
    <path clip-path="url(#p1296bdd925)" d="M 73.832727 295.488 
L 105.216 219.995817 
L 113.873455 199.730707 
L 120.366545 185.058667 
L 125.777455 173.377226 
L 130.106182 164.519698 
L 134.434909 156.213208 
L 137.681455 150.417428 
L 140.928 145.054309 
L 144.174545 140.180995 
L 146.338909 137.233151 
L 148.503273 134.546557 
L 150.667636 132.13865 
L 152.832 130.026602 
L 154.996364 128.227132 
L 157.160727 126.756296 
L 159.325091 125.629262 
L 161.489455 124.860087 
L 163.653818 124.46147 
L 165.818182 124.444515 
L 167.982545 124.818489 
L 170.146909 125.590578 
L 172.311273 126.765663 
L 174.475636 128.346096 
L 176.64 130.331509 
L 178.804364 132.718635 
L 180.968727 135.501165 
L 183.133091 138.669639 
L 185.297455 142.211379 
L 187.461818 146.110462 
L 189.626182 150.34775 
L 192.872727 157.288257 
L 196.119273 164.851233 
L 199.365818 172.935415 
L 203.694545 184.32902 
L 211.269818 205.134155 
L 217.762909 222.804441 
L 222.091636 233.998046 
L 225.338182 241.911416 
L 228.584727 249.319104 
L 231.831273 256.156842 
L 235.077818 262.379369 
L 238.324364 267.960758 
L 240.488727 271.321219 
L 242.653091 274.395422 
L 244.817455 277.188784 
L 246.981818 279.709575 
L 249.146182 281.968564 
L 251.310545 283.978624 
L 253.474909 285.754322 
L 255.639273 287.311511 
L 257.803636 288.666918 
L 259.968 289.837755 
L 263.214545 291.285824 
L 266.461091 292.41494 
L 269.707636 293.279417 
L 272.954182 293.928973 
L 277.282909 294.536085 
L 281.611636 294.926424 
L 288.104727 295.250178 
L 296.762182 295.421856 
L 314.077091 295.484916 
L 397.405091 295.488 
L 397.405091 295.488 
" style="fill:none;stroke:#55a868;stroke-linecap:round;stroke-width:1.75;"/>
   </g>
   <g id="line2d_33">
    <path clip-path="url(#p1296bdd925)" d="M 73.832727 295.488 
L 117.12 243.406908 
L 129.024 229.432742 
L 137.681455 219.58067 
L 145.256727 211.299458 
L 151.749818 204.548331 
L 157.160727 199.234376 
L 162.571636 194.264946 
L 166.900364 190.57895 
L 171.229091 187.186427 
L 175.557818 184.121822 
L 178.804364 182.05959 
L 182.050909 180.216214 
L 185.297455 178.606232 
L 188.544 177.243799 
L 191.790545 176.142495 
L 195.037091 175.31511 
L 198.283636 174.773427 
L 201.530182 174.528 
L 204.776727 174.587916 
L 208.023273 174.960571 
L 211.269818 175.651443 
L 214.516364 176.663875 
L 217.762909 177.99888 
L 221.009455 179.654957 
L 224.256 181.627941 
L 227.502545 183.910887 
L 230.749091 186.493985 
L 233.995636 189.364526 
L 237.242182 192.506914 
L 240.488727 195.902727 
L 244.817455 200.787818 
L 249.146182 206.028642 
L 254.557091 212.982008 
L 261.050182 221.734179 
L 279.447273 246.814532 
L 284.858182 253.694272 
L 289.186909 258.885069 
L 293.515636 263.747249 
L 297.844364 268.245036 
L 302.173091 272.353354 
L 305.419636 275.170014 
L 308.666182 277.757214 
L 311.912727 280.115963 
L 315.159273 282.250185 
L 318.405818 284.166424 
L 321.652364 285.873509 
L 324.898909 287.382189 
L 329.227636 289.106528 
L 333.556364 290.532186 
L 337.885091 291.693238 
L 342.213818 292.624274 
L 347.624727 293.515953 
L 353.035636 294.162719 
L 359.528727 294.692547 
L 367.104 295.070192 
L 376.843636 295.319579 
L 391.994182 295.454233 
L 397.405091 295.470103 
L 397.405091 295.470103 
" style="fill:none;stroke:#c44e52;stroke-linecap:round;stroke-width:1.75;"/>
   </g>
   <g id="line2d_34">
    <path clip-path="url(#p1296bdd925)" d="M 73.832727 295.488 
L 122.530909 248.61879 
L 135.517091 236.426137 
L 145.256727 227.55962 
L 152.832 220.919378 
L 160.407273 214.586077 
L 166.900364 209.469224 
L 172.311273 205.472805 
L 177.722182 201.761645 
L 182.050909 199.026001 
L 186.379636 196.521524 
L 190.708364 194.270561 
L 195.037091 192.295489 
L 199.365818 190.618366 
L 202.612364 189.56893 
L 205.858909 188.707723 
L 209.105455 188.042881 
L 212.352 187.581959 
L 215.598545 187.331815 
L 218.845091 187.29849 
L 222.091636 187.487096 
L 225.338182 187.901693 
L 228.584727 188.545179 
L 231.831273 189.419184 
L 235.077818 190.523968 
L 238.324364 191.858336 
L 241.570909 193.419559 
L 244.817455 195.203319 
L 248.064 197.203658 
L 251.310545 199.412962 
L 255.639273 202.667493 
L 259.968 206.250354 
L 264.296727 210.13011 
L 269.707636 215.342038 
L 275.118545 220.88214 
L 281.611636 227.840477 
L 305.419636 253.719767 
L 310.830545 259.150703 
L 316.241455 264.253594 
L 320.570182 268.062984 
L 324.898909 271.606647 
L 329.227636 274.869778 
L 333.556364 277.843751 
L 337.885091 280.525921 
L 342.213818 282.919244 
L 346.542545 285.031732 
L 350.871273 286.875776 
L 355.2 288.467373 
L 359.528727 289.825293 
L 363.857455 290.97024 
L 369.268364 292.135209 
L 374.679273 293.044707 
L 380.090182 293.740777 
L 386.583273 294.3494 
L 394.158545 294.822297 
L 398.487273 295.007169 
L 398.487273 295.007169 
" style="fill:none;stroke:#8172b2;stroke-linecap:round;stroke-width:1.75;"/>
   </g>
   <g id="patch_3">
    <path d="M 57.6 307.584 
L 57.6 41.472 
" style="fill:none;"/>
   </g>
   <g id="patch_4">
    <path d="M 414.72 307.584 
L 414.72 41.472 
" style="fill:none;"/>
   </g>
   <g id="patch_5">
    <path d="M 57.6 307.584 
L 414.72 307.584 
" style="fill:none;"/>
   </g>
   <g id="patch_6">
    <path d="M 57.6 41.472 
L 414.72 41.472 
" style="fill:none;"/>
   </g>
   <g id="legend_1">
    <g id="line2d_35">
     <path d="M 340.674959 53.972 
L 360.674959 53.972 
" style="fill:none;stroke:#4c72b0;stroke-linecap:round;stroke-width:1.75;"/>
    </g>
    <g id="line2d_36"/>
    <g id="text_18">
     <!-- $\displaystyle \sigma=0.25$ -->
     <defs>
      <path d="M 50.796875 37.625 
C 52.09375 37.625 55.40625 37.625 55.40625 40.8125 
C 55.40625 43 53.5 43 51.703125 43 
L 29.59375 43 
C 14.59375 43 3.796875 26.34375 3.796875 14.5625 
C 3.796875 6.09375 9.296875 -1 18.296875 -1 
C 30.09375 -1 43 11.671875 43 26.640625 
C 43 30.53125 42.09375 34.3125 39.703125 37.625 
z
M 18.40625 1 
C 13.296875 1 9.59375 4.890625 9.59375 11.78125 
C 9.59375 17.765625 13.203125 37.625 27.90625 37.625 
C 32.203125 37.625 37 35.53125 37 27.828125 
C 37 24.34375 35.40625 15.953125 31.90625 10.1875 
C 28.296875 4.296875 22.90625 1 18.40625 1 
z
" id="CMMI12-27"/>
      <path d="M 64.296875 31.515625 
C 65.796875 31.515625 67.296875 31.515625 67.296875 33.203125 
C 67.296875 35 65.59375 35 63.90625 35 
L 8 35 
C 6.296875 35 4.59375 35 4.59375 33.203125 
C 4.59375 31.515625 6.09375 31.515625 7.59375 31.515625 
z
M 63.90625 14 
C 65.59375 14 67.296875 14 67.296875 15.796875 
C 67.296875 17.484375 65.796875 17.484375 64.296875 17.484375 
L 7.59375 17.484375 
C 6.09375 17.484375 4.59375 17.484375 4.59375 15.796875 
C 4.59375 14 6.296875 14 8 14 
z
" id="CMR17-61"/>
     </defs>
     <g style="fill:#262626;" transform="translate(368.674959 57.472)scale(0.1 -0.1)">
      <use transform="scale(0.996264)" xlink:href="#CMMI12-27"/>
      <use transform="translate(86.694062 0)scale(0.996264)" xlink:href="#CMR17-61"/>
      <use transform="translate(186.082859 0)scale(0.996264)" xlink:href="#CMR17-48"/>
      <use transform="translate(231.773337 0)scale(0.996264)" xlink:href="#CMMI12-58"/>
      <use transform="translate(258.870514 0)scale(0.996264)" xlink:href="#CMR17-50"/>
      <use transform="translate(304.560991 0)scale(0.996264)" xlink:href="#CMR17-53"/>
     </g>
    </g>
    <g id="line2d_37">
     <path d="M 340.674959 67.909178 
L 360.674959 67.909178 
" style="fill:none;stroke:#55a868;stroke-linecap:round;stroke-width:1.75;"/>
    </g>
    <g id="line2d_38"/>
    <g id="text_19">
     <!-- $\displaystyle \sigma=0.5$ -->
     <g style="fill:#262626;" transform="translate(368.674959 71.409178)scale(0.1 -0.1)">
      <use transform="scale(0.996264)" xlink:href="#CMMI12-27"/>
      <use transform="translate(86.694062 0)scale(0.996264)" xlink:href="#CMR17-61"/>
      <use transform="translate(186.082859 0)scale(0.996264)" xlink:href="#CMR17-48"/>
      <use transform="translate(231.773337 0)scale(0.996264)" xlink:href="#CMMI12-58"/>
      <use transform="translate(258.870514 0)scale(0.996264)" xlink:href="#CMR17-53"/>
     </g>
    </g>
    <g id="line2d_39">
     <path d="M 340.674959 81.846357 
L 360.674959 81.846357 
" style="fill:none;stroke:#c44e52;stroke-linecap:round;stroke-width:1.75;"/>
    </g>
    <g id="line2d_40"/>
    <g id="text_20">
     <!-- $\displaystyle \sigma=1$ -->
     <g style="fill:#262626;" transform="translate(368.674959 85.346357)scale(0.1 -0.1)">
      <use transform="scale(0.996264)" xlink:href="#CMMI12-27"/>
      <use transform="translate(86.694062 0)scale(0.996264)" xlink:href="#CMR17-61"/>
      <use transform="translate(186.082859 0)scale(0.996264)" xlink:href="#CMR17-49"/>
     </g>
    </g>
    <g id="line2d_41">
     <path d="M 340.674959 95.783535 
L 360.674959 95.783535 
" style="fill:none;stroke:#8172b2;stroke-linecap:round;stroke-width:1.75;"/>
    </g>
    <g id="line2d_42"/>
    <g id="text_21">
     <!-- $\displaystyle \sigma=1.25$ -->
     <g style="fill:#262626;" transform="translate(368.674959 99.283535)scale(0.1 -0.1)">
      <use transform="scale(0.996264)" xlink:href="#CMMI12-27"/>
      <use transform="translate(86.694062 0)scale(0.996264)" xlink:href="#CMR17-61"/>
      <use transform="translate(186.082859 0)scale(0.996264)" xlink:href="#CMR17-49"/>
      <use transform="translate(231.773337 0)scale(0.996264)" xlink:href="#CMMI12-58"/>
      <use transform="translate(258.870514 0)scale(0.996264)" xlink:href="#CMR17-50"/>
      <use transform="translate(304.560991 0)scale(0.996264)" xlink:href="#CMR17-53"/>
     </g>
    </g>
   </g>
  </g>
 </g>
 <defs>
  <clipPath id="p1296bdd925">
   <rect height="266.112" width="357.12" x="57.6" y="41.472"/>
  </clipPath>
 </defs>
</svg>
