<svg version="1.2" viewBox="7.36 -.04 21.89 14.89">
  <path stroke="currentColor" stroke-linecap="round" stroke-linejoin="round" stroke-width=".1" d="M8.586 5.764h20.61m-20.61-1h20.61m-20.61-1h20.61m-20.61-1h20.61m-20.61-1h20.61m-20.61 13h20.61m-20.61-1h20.61m-20.61-1h20.61m-20.61-1h20.61m-20.61-1h20.61"/>
  <rect width=".19" height="4.05" y="-2" fill="currentColor" ry="0" transform="translate(29.058 3.764)"/>
  <rect width=".19" height="4.95" y="5.81" fill="currentColor" ry="0" transform="translate(29.058)"/>
  <rect width=".19" height="4.05" y="-2.05" fill="currentColor" ry="0" transform="translate(29.058 12.764)"/>
  <a color="inherit">
    <path fill="currentColor" d="M27.133 2.22c.22 0 .432.112.432.356 0 .284-.22.484-.408.596a.908.908 0 0 1-.464.136c-.22 0-.432-.112-.432-.356 0-.284.22-.484.408-.596.14-.084.3-.136.464-.136z"/>
  </a>
  <rect width=".13" height="3.15" x="-.07" y=".19" fill="currentColor" ry=".04" transform="translate(20.321 3.764)"/>
  <rect width=".13" height="3.24" x="-.07" y="-3" fill="currentColor" ry=".04" transform="translate(24.57 12.764)"/>
  <rect width=".13" height="3.31" x="-.07" y="-.31" fill="currentColor" ry=".04" transform="translate(23.324 3.764)"/>
  <a color="inherit">
    <path fill="currentColor" d="M24.515 13.004a.168.168 0 0 0-.168-.164c-.016 0-.032 0-.048.004-.124.036-.312.16-.46.256s-.336.212-.416.312a.168.168 0 0 0 .128.276c.016 0 .032 0 .048-.004.124-.036.308-.16.456-.256s.336-.212.416-.312a.172.172 0 0 0 .044-.112zm-.208-.284c.184 0 .328.084.328.284a.739.739 0 0 1-.04.228.71.71 0 0 1-.256.376c-.212.144-.452.2-.748.2-.184 0-.332-.084-.332-.284 0-.076.02-.156.044-.228a.703.703 0 0 1 .252-.376c.212-.144.456-.2.752-.2z"/>
  </a>
  <a color="inherit">
    <path fill="currentColor" d="M24.13 2.72c.22 0 .433.112.433.356 0 .284-.22.484-.408.596a.908.908 0 0 1-.464.136c-.22 0-.432-.112-.432-.356 0-.284.22-.484.408-.596.14-.084.3-.136.464-.136z"/>
  </a>
  <rect width=".13" height="3.31" x="-.07" y="-.81" fill="currentColor" ry=".04" transform="translate(26.326 3.764)"/>
  <a color="inherit">
    <path fill="currentColor" d="M18.108 3.72c.22 0 .432.112.432.356 0 .284-.22.484-.408.596a.908.908 0 0 1-.464.136c-.22 0-.432-.112-.432-.356 0-.284.22-.484.408-.596.14-.084.3-.136.464-.136z"/>
  </a>
  <a color="inherit">
    <path fill="currentColor" d="M21.128 3.22c.22 0 .432.112.432.356 0 .284-.22.484-.408.596a.908.908 0 0 1-.464.136c-.22 0-.432-.112-.432-.356 0-.284.22-.484.408-.596.14-.084.3-.136.464-.136z"/>
  </a>
  <a color="inherit">
    <path fill="currentColor" d="M14.972 12.656a.301.301 0 0 1-.3-.3c0-.152.108-.308.288-.308.016 0 .036 0 .056.004a.599.599 0 0 0-.48-.236c-.424 0-.452.292-.452.744v.408c0 .452.028.748.452.748.32 0 .556-.28.632-.604.008-.028.028-.04.048-.04.024 0 .052.016.052.048 0 .376-.42.696-.732.696-.272 0-.548-.084-.736-.28-.196-.204-.264-.488-.264-.772s.068-.568.264-.772c.188-.196.464-.276.736-.276.348 0 .64.252.7.596.004.02.004.04.004.056 0 .16-.12.288-.268.288z"/>
  </a>
  <path fill="currentColor" d="M11.564 12.264c0-.112.092-.204.204-.204s.204.092.204.204-.092.204-.204.204-.204-.092-.204-.204zm0-1c0-.112.092-.204.204-.204s.204.092.204.204-.092.204-.204.204-.204-.092-.204-.204zm-1.3-.552c.688 0 1.172.352 1.172 1.004 0 1.052-1.052 1.656-2.064 2.084a.049.049 0 0 1-.036.016.053.053 0 0 1-.052-.052c0-.012.004-.024.016-.036.808-.472 1.648-1.06 1.648-1.972 0-.48-.252-.94-.684-.94-.296 0-.516.216-.616.504a.323.323 0 0 1 .136-.032c.22 0 .4.18.4.4 0 .232-.176.424-.4.424-.24 0-.448-.188-.448-.424 0-.532.408-.976.928-.976z"/>
  <a color="inherit">
    <path fill="currentColor" d="M18.492 14.004a.168.168 0 0 0-.168-.164c-.016 0-.032 0-.048.004-.124.036-.312.16-.46.256s-.336.212-.416.312a.168.168 0 0 0 .128.276c.016 0 .032 0 .048-.004.124-.036.308-.16.456-.256s.336-.212.416-.312a.172.172 0 0 0 .044-.112zm-.208-.284c.184 0 .328.084.328.284a.739.739 0 0 1-.04.228.71.71 0 0 1-.256.376c-.212.144-.452.2-.748.2-.184 0-.332-.084-.332-.284 0-.076.02-.156.044-.228a.703.703 0 0 1 .252-.376c.212-.144.456-.2.752-.2z"/>
  </a>
  <a color="inherit">
    <path fill="currentColor" d="M14.972 3.656a.301.301 0 0 1-.3-.3c0-.152.108-.308.288-.308.016 0 .036 0 .056.004a.599.599 0 0 0-.48-.236c-.424 0-.452.292-.452.744v.408c0 .452.028.748.452.748.32 0 .556-.28.632-.604.008-.028.028-.04.048-.04.024 0 .052.016.052.048 0 .376-.42.696-.732.696-.272 0-.548-.084-.736-.28-.196-.204-.264-.488-.264-.772s.068-.568.264-.772c.188-.196.464-.276.736-.276.348 0 .64.252.7.596.004.02.004.04.004.056 0 .16-.12.288-.268.288z"/>
  </a>
  <path fill="currentColor" d="M10.4 7.304h-.024a.783.783 0 0 1-.78-.788c0-.232.212-.412.448-.412.216 0 .38.188.38.412 0 .208-.172.38-.38.38a.326.326 0 0 1-.124-.024c.104.156.272.26.468.26h.016zm.78-1.728a.71.71 0 0 0 .452-.656.764.764 0 0 0-.692-.76c.096.464.184.924.24 1.416zm-1.548-.924c0 .54.516.988 1.056.988.112 0 .22-.008.328-.024-.056-.508-.148-.98-.252-1.456-.316.032-.496.244-.496.476 0 .176.1.364.324.492.02.02.028.04.028.06 0 .044-.04.088-.088.088-.012 0-.024-.004-.036-.008-.32-.172-.468-.46-.468-.74 0-.352.232-.696.64-.788a15.048 15.048 0 0 0-.184-.7c-.428.484-.852.972-.852 1.612zm1.044 1.16c-.752 0-1.332-.688-1.332-1.496 0-.708.524-1.224.992-1.764a4.47 4.47 0 0 1-.18-.76 5.429 5.429 0 0 1-.028-.624c0-.46.22-.896.596-1.168a.06.06 0 0 1 .08 0c.284.336.532.98.532 1.432 0 .572-.344 1.02-.72 1.456.084.272.156.552.224.828.016 0 .036-.004.052-.004.62 0 1.024.512 1.024 1.044 0 .304-.132.616-.428.84a.905.905 0 0 1-.292.144c.012.14.02.28.02.42 0 .076-.004.156-.008.232-.028.476-.352.9-.808.912l.004-.172c.372-.008.612-.368.636-.764a3.775 3.775 0 0 0-.008-.588c-.116.02-.232.032-.356.032zm.372-4.712c0-.22-.016-.316-.08-.516a1.153 1.153 0 0 0-.648 1.036c0 .296.072.532.144.776.32-.388.584-.792.584-1.296z"/>
  <rect width=".13" height="3.31" x="-.07" y="-3" fill="currentColor" ry=".04" transform="translate(18.475 3.764)"/>
  <rect width=".16" height="13.1" y="-6.55" fill="currentColor" ry=".05" transform="translate(8.476 8.264)"/>
  <path fill="currentColor" d="M8.116 10.256c0 1.044-.408 2.064-.408 3.06 0 .54.12 1.044.516 1.44.06.06-.036.156-.096.096-.528-.54-.708-1.248-.708-2.004 0-1.068.432-2.112.432-3.12 0-.54-.132-1.044-.516-1.44-.012-.012-.012-.012-.012-.024s0-.012.012-.024c.384-.396.516-.9.516-1.44 0-1.008-.432-2.052-.432-3.12 0-.756.18-1.464.708-2.004.06-.06.156.036.096.096-.396.396-.516.9-.516 1.44 0 .996.408 2.016.408 3.06 0 .744-.18 1.452-.696 1.992.516.54.696 1.248.696 1.992z"/>
  <rect width=".13" height="3.24" x="-.07" y="-2" fill="currentColor" ry=".04" transform="translate(18.548 12.764)"/>
</svg>
